<svg id="icon" xmlns="http://www.w3.org/2000/svg" xmlns:xlink="http://www.w3.org/1999/xlink" viewBox="0 0 32 32"><g xmlns="http://www.w3.org/2000/svg"><path d="M13,14c2.206,0,4-1.794,4-4c0-1.859-1.28-3.411-3-3.858V3c0-0.553-0.448-1-1-1s-1,0.447-1,1v4c0,0.553,0.448,1,1,1   c1.103,0,2,0.897,2,2s-0.897,2-2,2s-2-0.897-2-2c0-0.229,0.038-0.454,0.113-0.666c0.185-0.521-0.087-1.092-0.608-1.276   C9.983,7.873,9.414,8.146,9.229,8.666C9.077,9.093,9,9.542,9,10C9,12.206,10.794,14,13,14z" style="fill: inherit;"></path><path d="M10.03,14.02c-0.54-0.4-1-0.91-1.34-1.49L3.73,17h2.99L10.03,14.02z" style="fill: inherit;"></path><path d="M15.97,14.02L19.28,17h2.99l-4.96-4.47C16.97,13.11,16.51,13.62,15.97,14.02z" style="fill: inherit;"></path><path d="M23,18H3c-0.552,0-1,0.447-1,1v10c0,0.553,0.448,1,1,1h20c0.552,0,1-0.447,1-1V19C24,18.447,23.552,18,23,18z M8,25   c0,0.553-0.448,1-1,1s-1-0.447-1-1v-2c0-0.553,0.448-1,1-1s1,0.447,1,1V25z M12,25c0,0.553-0.448,1-1,1s-1-0.447-1-1v-2   c0-0.553,0.448-1,1-1s1,0.447,1,1V25z M16,25c0,0.553-0.448,1-1,1s-1-0.447-1-1v-2c0-0.553,0.448-1,1-1s1,0.447,1,1V25z M20,25   c0,0.553-0.448,1-1,1s-1-0.447-1-1v-2c0-0.553,0.448-1,1-1s1,0.447,1,1V25z" style="fill: inherit;"></path><path d="M29,19h-3.196c-0.552,0-1,0.447-1,1s0.448,1,1,1H29c0.552,0,1-0.447,1-1S29.552,19,29,19z" style="fill: inherit;"></path><path d="M27,23h-1.196c-0.552,0-1,0.447-1,1s0.448,1,1,1H27c0.552,0,1-0.447,1-1S27.552,23,27,23z" style="fill: inherit;"></path><path d="M26,27h-0.196c-0.552,0-1,0.447-1,1s0.448,1,1,1H26c0.552,0,1-0.447,1-1S26.552,27,26,27z" style="fill: inherit;"></path></g></svg>