<svg id="icon" xmlns="http://www.w3.org/2000/svg" xmlns:xlink="http://www.w3.org/1999/xlink" viewBox="0 0 100 100"><path xmlns="http://www.w3.org/2000/svg" d="M56.6829224,48.5056763H17.4712524l-6.8313599,13.1345215H2.9450073v6.1660156H7.515625v17.4083862v3.9328003v6.9185791  h12.0512085v-6.9185791h35.8125v6.9185791h12.0568848v-6.9185791v-3.9328003V67.8062134h4.8401489v-6.1660156h-8.2175903  L56.6829224,48.5056763z M21.1398926,53.7526855h32.3969116l6.2923584,10.7476196H16.0246582L21.1398926,53.7526855z   M16.0246582,80.4952393c-2.8215332,0-5.1096191-2.288208-5.1096191-5.1097412c0-2.8217163,2.2880859-5.1152954,5.1096191-5.1152954  c2.8218384,0,5.1152344,2.2935791,5.1152344,5.1152954C21.1398926,78.2070312,18.8464966,80.4952393,16.0246582,80.4952393z   M57.3374634,80.4952393c-2.8214722,0-5.1152344-2.288208-5.1152344-5.1097412c0-2.8217163,2.2937622-5.1152954,5.1152344-5.1152954  c2.8271484,0,5.1152954,2.2935791,5.1152954,5.1152954C62.4527588,78.2070312,60.1646118,80.4952393,57.3374634,80.4952393z" style="fill: inherit;"></path><path xmlns="http://www.w3.org/2000/svg" d="M39.612854,30.7783813l-3.7644043,4.1774902c0,0.000061,0,0.000061,0,0.000061l3.9794312,3.9794312l4.1680298-3.7759399  c1.3348999,0.8442383,2.8217163,1.4699097,4.4101562,1.8267822l0.2920532,5.6144409c0,0.000061,0,0.000061,0,0.000061h5.6277466  h0.000061l0.2771606-5.6159668c1.5882568-0.357605,3.0747681-0.9840088,4.4092407-1.8288574l4.1775513,3.7644043  l3.9794312-3.9794312l-3.7758789-4.1680908c0.8441772-1.3348389,1.4698486-2.8216553,1.8267212-4.4100952l5.614502-0.2920532  v-5.6277466c0,0,0,0,0-0.000061l-5.6160278-0.2772217c-0.3575439-1.5882568-0.9839478-3.0747681-1.8288574-4.4092407  l3.7644043-4.1774902c0.000061,0,0.000061-0.000061,0-0.000061l-3.9793701-3.9793701h-0.000061l-4.1680298,3.7758789  c-1.3348389-0.8441772-2.8216553-1.4699097-4.4101562-1.8267212l-0.2919922-5.614502l-0.000061-0.000061h-5.6277466  c0,0,0,0,0,0.000061l-0.2771606,5.6159668c-1.5883179,0.357605-3.0748291,0.9839478-4.4093018,1.8288574L39.8128052,7.614502  l-3.9794312,3.9793701v0.000061l3.7758789,4.1680908c-0.8442383,1.3348389-1.4699097,2.8215942-1.8267822,4.4100952  l-5.6144409,0.2919922c0,0-0.000061,0-0.000061,0.000061v5.6277466l5.6160278,0.2772217  C38.1415405,27.9573975,38.7679443,29.4439087,39.612854,30.7783813z M54.3060913,17.7387695  c1.2032471,0.5404053,2.1831665,1.5202637,2.7236328,2.7235107c2.4698486,5.4981689-2.8348389,10.8032227-8.3331909,8.3336792  c-1.2032471-0.5404053-2.1831055-1.5202637-2.7236328-2.7234497C43.5030518,20.5743408,48.8077393,15.2692261,54.3060913,17.7387695  z" style="fill: inherit;"></path><path xmlns="http://www.w3.org/2000/svg" d="M92.3510742,38.4202881c-0.2994995-1.3303223-0.8241577-2.5754395-1.5318604-3.6931763l3.1530762-3.4990234  c0-0.000061,0-0.000061,0-0.000061l-3.3331299-3.3331299h-0.000061l-3.4911499,3.1626587  c-1.118042-0.7070923-2.3634033-1.2311401-3.6939087-1.5300293l-0.2445679-4.7026978c0,0,0,0-0.000061,0h-4.7137451  l-0.2321777,4.7039185c-1.3303223,0.2994995-2.5754395,0.8241577-3.6931763,1.5317993l-3.4990845-3.1530151l-3.3331299,3.3331299  c0,0,0,0,0,0.000061l3.1626587,3.4910889c-0.7071533,1.118103-1.2312012,2.3634033-1.5300903,3.6939087l-4.7026367,0.2446289  h-0.000061v4.7137451l4.7039795,0.2322388c0.2994995,1.3303223,0.8241577,2.5754395,1.5317993,3.6931763l-3.1530151,3.4990234  v0.000061l3.3331299,3.3331299l3.4911499-3.1627197c1.118042,0.7071533,2.3634033,1.2312012,3.6939087,1.5300903  l0.2446289,4.7026978h4.7138062l0.2321777-4.7039185c1.3303223-0.2994995,2.5753784-0.8241577,3.6931763-1.5318604  l3.4990234,3.1530762l3.3331909-3.3331299l-3.1626587-3.4912109c0.7070923-1.118042,1.2311401-2.3633423,1.5300293-3.6938477  l4.7026978-0.2446289v-4.7137451v-0.000061L92.3510742,38.4202881z M78.5122681,45.6490479  c-1.0078735-0.4526978-1.8286133-1.2733765-2.2813721-2.281189c-2.0687256-4.6052246,2.3744507-9.0487671,6.9798584-6.9802856  c1.0078125,0.4526367,1.8286133,1.2733765,2.281311,2.281189C87.560791,43.2739868,83.1176147,47.7175293,78.5122681,45.6490479z" style="fill: inherit;"></path></svg>