<svg id="Layer_1" data-name="Layer 1" xmlns="http://www.w3.org/2000/svg" viewBox="0 0 116.86 25.39"><defs><style>.cls-1{fill:#f0dc20;}.cls-2{font-size:5px;fill:#4977c5;font-family:HelveticaNeue-MediumItalic, Helvetica Neue;font-weight:500;font-style:italic;letter-spacing:0.04em;}</style></defs><path class="cls-1" d="M22.51,5.46h92.76s2.13.11,1.45,2.08l-4.46,9.92a2.61,2.61,0,0,1-2.51,1.15c-1.87-.07-86.18,0-86.67,0Z" transform="translate(0 0)"/><path class="cls-1" d="M12.39,25A12.5,12.5,0,1,0,0,12.5,12.44,12.44,0,0,0,12.39,25Z" transform="translate(0 0)"/><path d="M32.28,16.54H25.52L30.26,7H37c1,0,1.49.42,1.49,1a1,1,0,0,1-.18.57L37,11.14c-.28.57-.6.75-1.38.75h-.07a1,1,0,0,1,.53.86,1.2,1.2,0,0,1-.18.61L35,15.11C34.47,16.29,33.73,16.54,32.28,16.54Zm.25-3.36a.38.38,0,0,0,0-.18.53.53,0,0,0-.57-.46h-.88l-.92,1.89h1.73Zm1.3-2.57.43-.9a.34.34,0,0,0,0-.17.5.5,0,0,0-.56-.47h-.92l-.74,1.54Z" transform="translate(0 0)"/><path d="M45.73,15.14c-.57,1.15-1.31,1.4-2.8,1.4H38.29c-.95,0-1.48-.43-1.48-1a1.3,1.3,0,0,1,.17-.61L40.2,8.43C40.81,7.25,41.51,7,43,7h4.64c1,0,1.48.42,1.48,1a1.27,1.27,0,0,1-.17.61Zm-.89-5.6c0-.25-.21-.43-.6-.43a1,1,0,0,0-1,.6l-2,4.08a.57.57,0,0,0-.08.25c0,.25.22.39.68.39a1,1,0,0,0,.92-.61l2.05-4.07A.26.26,0,0,0,44.84,9.54Z" transform="translate(0 0)"/><path d="M56.7,9.11H54.19c-.54,0-.78,0-.92.32l-.15.25a.58.58,0,0,0-.07.21c0,.32.6.4,1.7.75s2,.72,2,1.47a2.75,2.75,0,0,1-.25.89l-1,2c-.67,1.43-1.66,1.54-3.75,1.54H46.89l1-2.07h3.33c.92,0,1.34,0,1.59-.61l.25-.5a.7.7,0,0,0,.1-.36c0-.42-.56-.53-1.59-.85-1.31-.43-1.94-.65-1.94-1.29A2,2,0,0,1,49.9,10l.92-1.85c.43-.9,1.21-1,2.55-1H57.8Z" transform="translate(0 0)"/><path d="M65.94,9.11H63.42c-.53,0-.77,0-.92.32l-.14.25a.57.57,0,0,0-.07.25c0,.32.6.39,1.7.75s1.95.71,1.95,1.46a2.91,2.91,0,0,1-.25.93l-1,2c-.67,1.43-1.66,1.54-3.75,1.54H56.1l1-2.11h3.33c.92,0,1.35,0,1.59-.61l.25-.5A.68.68,0,0,0,62.4,13c0-.43-.57-.54-1.6-.86-1.3-.43-1.94-.64-1.94-1.29a1.84,1.84,0,0,1,.25-.85L60,8.18c.42-.89,1.2-1,2.54-1H67Z" transform="translate(0 0)"/><path d="M82.29,7c.74,0,1.2.35,1.2,1a1.61,1.61,0,0,1-.07.43l-2.58,8.11H69.62l5.41-6h3.75l-3.25,3.89h2.26l1.63-4.82a.28.28,0,0,0,0-.18c0-.17-.18-.32-.43-.32H75.67l1-2.07Z" transform="translate(0 0)"/><path d="M91.52,15.14c-.56,1.15-1.31,1.4-2.79,1.4H84.09c-1,0-1.48-.43-1.48-1a1.3,1.3,0,0,1,.17-.61L86.71,7h3.65L87,13.75a.45.45,0,0,0-.07.29c0,.25.22.39.64.39a1,1,0,0,0,1-.61L91.91,7h3.65Z" transform="translate(0 0)"/><path d="M97.93,16.54H94.29L98,9.14H95.31l1-2.07H105l-1,2.07h-2.37Z" transform="translate(0 0)"/><path d="M110.67,15.14c-.56,1.15-1.31,1.4-2.79,1.4h-4.64c-.95,0-1.49-.43-1.49-1a1.2,1.2,0,0,1,.18-.61l3.22-6.46C105.75,7.25,106.46,7,108,7h4.63c1,0,1.49.42,1.49,1a1.18,1.18,0,0,1-.18.61Zm-.88-5.6c0-.25-.21-.43-.6-.43a1,1,0,0,0-1,.6l-2,4.08a.72.72,0,0,0-.07.25c0,.25.21.39.67.39a1,1,0,0,0,.92-.61l2.06-4.07A.58.58,0,0,0,109.79,9.54Z" transform="translate(0 0)"/><path d="M12.39,23.32a10.81,10.81,0,0,1,0-21.61,10.81,10.81,0,0,1,0,21.61Zm0-20.18a9.36,9.36,0,0,0,0,18.72,9.36,9.36,0,0,0,0-18.72Z" transform="translate(0 0)"/><path d="M9.38,7.68s-4.46,2.21-.07,5.25c0,0,3.64,2.78,7.11-.14,0,0,3.68-3.33-.49-4.93l0,2.39s-2.4,2.68-6.47,0Z" transform="translate(0 0)"/><path d="M9.66,8.93a4.71,4.71,0,0,0,5.91.21.57.57,0,0,0,.25-.46V7a.63.63,0,0,0-.21-.6,2.09,2.09,0,0,0-2.44-.25.83.83,0,0,1-.75,0c-.49-.32-1.27-.64-2.69.18a.59.59,0,0,0-.28.5V8.46A.59.59,0,0,0,9.66,8.93Z" transform="translate(0 0)"/><path d="M3.4,16a38.41,38.41,0,0,1,4.95-1,.3.3,0,0,0,.25-.14l.53-.75s.25-.15.21.1A1.68,1.68,0,0,0,9,15.36a.2.2,0,0,0,0,.14L11.11,20a.14.14,0,0,0,.14.08.09.09,0,0,0,.08-.08l.53-2.5a.39.39,0,0,0-.07-.32c-.18-.25-.43-.71.63-.71,0,0,1.21-.07.68.68a.61.61,0,0,0-.08.25l.25,2.71s0,.07.11.07a.15.15,0,0,0,.07,0L16,15.86a.61.61,0,0,0,.07-.25,3.77,3.77,0,0,0-.18-.86c0-.07,0-.11-.11-.14s-.07-.11.08-.11a2.83,2.83,0,0,1,.56.75.27.27,0,0,0,.25.18A40.88,40.88,0,0,1,21,16.64a.38.38,0,0,1,.22.47l-.71,1.75a.42.42,0,0,1-.14.18l-3.33,2.21-.07,0-3.86,1.53a.39.39,0,0,1-.21,0L8.64,22s-.08,0-.11,0L5.45,20s-.11-.07-.11-.11L3.19,16.5a0,0,0,0,0,0,0L2.94,16Z" transform="translate(0 0)"/><path d="M16,13.14l-.11.61a.78.78,0,0,1-.07.25l-.32.36L14,15.89a.77.77,0,0,1-.57.22L11.68,16a.75.75,0,0,1-.57-.29L9.27,13.61a.62.62,0,0,1-.07-.36l0-.25v0c.35.22,3.46,2.79,6.72.15Z" transform="translate(0 0)"/><text class="cls-2" transform="translate(88.39 23.54)">RUSSIA</text></svg>